<svg xmlns="http://www.w3.org/2000/svg" id="_01" width="96" height="87" data-name="1" viewBox="0 0 96 87"><path id="Shape" fill="#e8eaf3" d="M39.4,0,48,5.886,46.187,8.38,39.4,3.735,31.7,9,24,3.735,16.305,9l-7.7-5.265L1.813,8.38,0,5.886,8.606,0l7.7,5.265L24,0l7.7,5.265Z" transform="translate(48 18)"/><path id="Shape-2" fill="#030404" d="M39.4,0,48,5.886,46.187,8.38,39.4,3.735,31.7,9,24,3.735,16.305,9l-7.7-5.265L1.813,8.38,0,5.885,8.606,0l7.7,5.265L24,0l7.7,5.265Z" data-name="Shape" transform="translate(42 22)"/><path id="Shape-3" fill="#444bf8" d="M15,7.5A7.5,7.5,0,1,1,7.5,0,7.5,7.5,0,0,1,15,7.5Z" data-name="Shape" transform="translate(50 67)"/><path id="Shape-4" fill="#444bf8" d="M15,7.5A7.5,7.5,0,1,1,7.5,0,7.5,7.5,0,0,1,15,7.5Z" data-name="Shape" transform="translate(6)"/><path id="Shape-5" fill="#030404" d="M9,18a9,9,0,1,1,9-9A9.01,9.01,0,0,1,9,18ZM9,3.228A5.772,5.772,0,1,0,14.772,9,5.778,5.778,0,0,0,9,3.228Z" data-name="Shape" transform="translate(44 69)"/><path id="Shape-6" fill="#030404" d="M9,18a9,9,0,1,1,9-9A9.01,9.01,0,0,1,9,18ZM9,3.228A5.772,5.772,0,1,0,14.772,9,5.778,5.778,0,0,0,9,3.228Z" data-name="Shape" transform="translate(0 2)"/></svg>