<svg xmlns="http://www.w3.org/2000/svg" id="_04" width="58" height="101" data-name="4" viewBox="0 0 58 101"><path id="Shape" fill="#e8eaf3" d="M0,3V0H12V3Z" transform="translate(46 89)"/><path id="Shape-2" fill="#e8eaf3" d="M0,0H3V12H0Z" data-name="Shape" transform="translate(50 84)"/><path id="Shape-3" fill="#e8eaf3" d="M0,3V0H12V3Z" data-name="Shape" transform="translate(27 5)"/><path id="Shape-4" fill="#e8eaf3" d="M0,0H3V12H0Z" data-name="Shape" transform="translate(32)"/><path id="Shape-5" fill="#030404" d="M0,3V0H12V3Z" data-name="Shape" transform="translate(40 93)"/><path id="Shape-6" fill="#030404" d="M0,0H3V12H0Z" data-name="Shape" transform="translate(45 89)"/><path id="Shape-7" fill="#030404" d="M0,3V0H12V3Z" data-name="Shape" transform="translate(21 9)"/><path id="Shape-8" fill="#030404" d="M0,0H3V12H0Z" data-name="Shape" transform="translate(26 4)"/><path id="Shape-9" fill="#444bf8" d="M15,7.5A7.5,7.5,0,1,1,7.5,0,7.5,7.5,0,0,1,15,7.5Z" data-name="Shape" transform="translate(7 55)"/><path id="Shape-10" fill="#030404" d="M9,18a9,9,0,1,1,9-9A9.01,9.01,0,0,1,9,18ZM9,3.228A5.772,5.772,0,1,0,14.772,9,5.778,5.778,0,0,0,9,3.228Z" data-name="Shape" transform="translate(0 58)"/></svg>