<svg xmlns="http://www.w3.org/2000/svg" id="_03" width="150" height="139" data-name="3" viewBox="0 0 150 139"><path id="Shape" fill="#e8eaf3" d="M0,3V0H46V3Z" transform="translate(78 82)"/><path id="Shape-2" fill="#e8eaf3" d="M39.4,0,48,5.886,46.187,8.38,39.4,3.735,31.7,9,24,3.735,16.305,9l-7.7-5.265L1.813,8.38,0,5.885,8.606,0l7.7,5.265L24,0l7.7,5.265Z" data-name="Shape" transform="translate(48 44)"/><path id="Shape-3" fill="#e8eaf3" d="M0,3V0H12V3Z" data-name="Shape" transform="translate(138 92)"/><path id="Shape-4" fill="#e8eaf3" d="M0,0H3V12H0Z" data-name="Shape" transform="translate(142 87)"/><path id="Shape-5" fill="#e8eaf3" d="M0,3V0H12V3Z" data-name="Shape" transform="translate(6 31)"/><path id="Shape-6" fill="#e8eaf3" d="M0,0H3V12H0Z" data-name="Shape" transform="translate(11 27)"/><path id="Shape-7" fill="#030404" d="M0,3V0H46V3Z" data-name="Shape" transform="translate(72 86)"/><path id="Shape-8" fill="#030404" d="M39.4,0,48,5.886,46.187,8.38,39.4,3.735,31.7,9,24,3.735,16.305,9l-7.7-5.265L1.813,8.38,0,5.886,8.606,0l7.7,5.265L24,0l7.7,5.265Z" data-name="Shape" transform="translate(41 48)"/><path id="Shape-9" fill="#030404" d="M0,3V0H12V3Z" data-name="Shape" transform="translate(132 96)"/><path id="Shape-10" fill="#030404" d="M0,0H3V12H0Z" data-name="Shape" transform="translate(137 91)"/><path id="Shape-11" fill="#030404" d="M0,3V0H12V3Z" data-name="Shape" transform="translate(0 35)"/><path id="Shape-12" fill="#030404" d="M0,0H3V12H0Z" data-name="Shape" transform="translate(5 31)"/><path id="Shape-13" fill="#444bf8" d="M0,10.382,16,18,14.442,0Z" data-name="Shape" transform="translate(40)"/><path id="Shape-14" fill="#444bf8" d="M0,0,7.867,16,18,1.289Z" data-name="Shape" transform="translate(84 116)"/><path id="Shape-15" fill="#030404" d="M21,23h0L0,13.266,18.955,0,21,23ZM16.315,5.66,6.236,12.714,17.4,17.891Z" data-name="Shape" transform="translate(30)"/><path id="Shape-16" fill="#030404" d="M10.051,21v0L0,0,23,1.692,10.052,21ZM5.159,3.541,10.5,14.709,17.389,4.442l-12.23-.9Z" data-name="Shape" transform="translate(75 118)"/></svg>